<svg width="124" height="74" viewBox="0 0 124 74" fill="none" xmlns="http://www.w3.org/2000/svg">
<path d="M112 3.58064H12C5.4 3.58064 0 6.80322 0 10.7419C0 14.6806 5.4 17.9032 12 17.9032H112C118.6 17.9032 124 14.6806 124 10.7419C124 6.80322 118.6 3.58064 112 3.58064Z" fill="white"/>
<path d="M112 29.8387H12C5.4 29.8387 0 33.0613 0 37C0 40.9387 5.4 44.1613 12 44.1613H112C118.6 44.1613 124 40.9387 124 37C124 33.0613 118.6 29.8387 112 29.8387Z" fill="white"/>
<path d="M112 56.0968H12C5.4 56.0968 0 59.3194 0 63.2581C0 67.1968 5.4 70.4194 12 70.4194H112C118.6 70.4194 124 67.1968 124 63.2581C124 59.3194 118.6 56.0968 112 56.0968Z" fill="white"/>
</svg>
